<?xml version="1.0" encoding="utf-8"?>
<!-- Generator: Adobe Illustrator 23.0.3, SVG Export Plug-In . SVG Version: 6.00 Build 0)  -->
<svg version="1.1" id="Layer_1" xmlns="http://www.w3.org/2000/svg" xmlns:xlink="http://www.w3.org/1999/xlink" x="0px" y="0px"
	 width="112px" height="48.5px" viewBox="0 0 112 48.5" enable-background="new 0 0 112 48.5" xml:space="preserve">
<g>
	
		<rect x="21.4" y="10.5" transform="matrix(0.7071 -0.7071 0.7071 0.7071 -1.7223 19.5902)" fill="#39B54A" width="2.8" height="2.8"/>
	<path fill="#61BB46" d="M82.2,24.3"/>
	<g>
		<g>
			<rect x="0.7" y="1" fill="#34A853" width="2.9" height="31.9"/>
		</g>
		<g>
			<polygon fill="#282828" points="10.1,23.7 19.3,15.8 15.4,15.8 6.2,23.6 15.8,32.8 19.6,32.8 			"/>
		</g>
		<g>
			<polygon fill="#34A853" points="7.3,23.7 16.5,15.8 12.6,15.8 3.4,23.6 13,32.8 16.7,32.8 			"/>
		</g>
	</g>
	<g>
		<path fill="#282828" d="M82.2,15.6c-4.8,0-8.6,3.9-8.6,8.6c0,4.8,3.9,8.6,8.6,8.6c4.8,0,8.6-3.9,8.6-8.6
			C90.9,19.4,87,15.6,82.2,15.6z M82.2,30.3c-3.4,0-6.2-2.8-6.2-6.2s2.8-6.2,6.2-6.2c3.4,0,6.1,2.8,6.1,6.2S85.6,30.3,82.2,30.3z"/>
	</g>
	<path fill="#34A853" d="M81.8,24.8c8.4-1.2,7.2-9,7.1-9.4l0,0l0,0l0,0l0,0C88.5,15.4,80.7,16.3,81.8,24.8L81.8,24.8L81.8,24.8
		L81.8,24.8L81.8,24.8z"/>
	<g>
		<path fill="none" d="M102.7,18.2c-3.4,0-6.1,2.7-6.1,6.1s2.7,6.1,6.1,6.1s6.1-2.7,6.1-6.1S106,18.2,102.7,18.2z"/>
		<path fill="none" d="M85.9,19.3c-1-0.8-2.3-1.3-3.7-1.3c-3.4,0-6.2,2.8-6.2,6.2s2.8,6.2,6.2,6.2c3.4,0,6.1-2.8,6.1-6.2
			c0-1.2-0.3-2.3-0.9-3.3C86.6,20.8,86,20.1,85.9,19.3z"/>
		<rect x="67.9" y="1" fill="#282828" width="2.5" height="31.8"/>
		<path fill="#282828" d="M108.7,18.3c-1.6-1.6-3.8-2.5-6.1-2.5c-4.7,0-8.6,3.8-8.6,8.6c0,4.7,3.8,8.5,8.6,8.5
			c2.3,0,4.5-0.9,6.1-2.5V39c0,3.4-2.7,6.1-6.1,6.1s-6.1-2.7-6.1-6.1l0,0H94l0,0c0,4.7,3.8,8.5,8.6,8.5c4.7,0,8.6-3.8,8.6-8.5V24.3
			C111.3,22.1,110.4,19.9,108.7,18.3z M102.7,30.4c-3.4,0-6.1-2.7-6.1-6.1s2.7-6.1,6.1-6.1s6.1,2.7,6.1,6.1S106,30.4,102.7,30.4z"/>
		<rect x="21.6" y="15.8" fill="#34A853" width="2.5" height="17"/>
		<path fill="#34A853" d="M39.6,22.9h-7.4c-1.3,0-2.4-1.1-2.4-2.4s1.1-2.5,2.4-2.5h7.4c1.3,0,2.4,1.1,2.4,2.5h2.5
			c0-2.7-2.2-4.9-5-4.9h-7.4c-2.7,0-4.9,2.2-4.9,5c0,2.7,2.2,4.9,4.9,4.9h7.4c1.3,0,2.4,1.1,2.4,2.5c0,1.3-1.1,2.4-2.4,2.4h-7.4
			c-1.3,0-2.4-1.1-2.4-2.4l0,0h-2.5l0,0c0,2.7,2.2,4.9,4.9,4.9h7.4c2.7,0,5-2.2,5-4.9C44.6,25.2,42.3,22.9,39.6,22.9z"/>
		<path fill="#34A853" d="M59.1,22.9h-7.4c-1.3,0-2.4-1.1-2.4-2.4s1.1-2.5,2.4-2.5h7.4c1.3,0,2.4,1.1,2.4,2.5H64
			c0-2.7-2.2-4.9-5-4.9h-7.4c-2.7,0-4.9,2.2-4.9,5c0,2.7,2.2,4.9,4.9,4.9H59c1.3,0,2.4,1.1,2.4,2.5c0,1.3-1.1,2.4-2.4,2.4h-7.4
			c-1.3,0-2.4-1.1-2.4-2.4l0,0h-2.5l0,0c0,2.7,2.2,4.9,4.9,4.9H59c2.7,0,5-2.2,5-4.9C64.1,25.2,61.8,22.9,59.1,22.9z"/>
	</g>
</g>
</svg>
